<?xml version="1.0" encoding="utf-8"?>
<!-- Svg Vector Icons : http://www.onlinewebfonts.com/icon -->
<!DOCTYPE svg PUBLIC "-//W3C//DTD SVG 1.1//EN" "http://www.w3.org/Graphics/SVG/1.1/DTD/svg11.dtd">
<svg version="1.1" xmlns="http://www.w3.org/2000/svg" xmlns:xlink="http://www.w3.org/1999/xlink" x="0px" y="0px" viewBox="0 0 1000 1000" enable-background="new 0 0 1000 1000" xml:space="preserve">
<metadata> Svg Vector Icons : http://www.onlinewebfonts.com/icon </metadata>
<g><path d="M325,849.3c-38.6,0-69.9,31.3-69.9,69.9c0,38.6,31.3,69.9,69.9,69.9c38.6,0,69.9-31.3,69.9-69.9C394.8,880.6,363.6,849.3,325,849.3L325,849.3L325,849.3L325,849.3z M814,849.3c-38.6,0-69.9,31.3-69.9,69.9c0,38.6,31.3,69.9,69.9,69.9c38.6,0,69.9-31.3,69.9-69.9C883.9,880.6,852.6,849.3,814,849.3L814,849.3L814,849.3L814,849.3z M883.4,814.4H315.9c-50.3,0-94.6-39.8-100.7-90.7l-59.3-417.1l-33.7-194.9c-2.1-17-17.6-30.9-32.8-30.9H44.9C25.7,80.8,10,65.1,10,45.9c0-19.3,15.7-34.9,34.9-34.9h44.5c51,0,95.7,39.8,101.9,90.7L225,295.8l59.5,418.9c2,16.2,16.6,29.9,31.4,29.9h567.4c19.3,0,34.9,15.6,34.9,34.9S902.7,814.4,883.4,814.4L883.4,814.4L883.4,814.4z M359.6,674.7c-18.1,0-33.5-14-34.8-32.4c-1.4-19.2,13-36,32.2-37.4L831,570c17.4-0.1,32.1-13.8,34-29.3l55-314.8c1.4-11.7-1.8-24.6-8.9-32.6c-4.5-5.1-10.2-7.7-16.8-7.7H289.5c-19.3,0-34.9-15.7-34.9-34.9c0-19.3,15.7-34.9,34.9-34.9h604.8c26.7,0,51.2,11.1,69.1,31.2c20.4,23,29.8,55.5,25.7,89.1L934,550.9c-5.9,49-50.2,88.8-100.5,88.8l-471.3,34.8C361.3,674.6,360.4,674.7,359.6,674.7L359.6,674.7L359.6,674.7z"/></g>
</svg>